# xmcd
# 
# Track frame offsets:
#     150
#     14872
#     29215
#     45235
#     58805
#     72647
#     82552
#     98175
#     111745
#     124395
#     137632
# 
# Disc length: 1997
# 
# Revision: 3
# Processed by: cddbd v1.5.2PL0 Copyright (c) Steve Scherf et al.
# Submitted via: BonkEnc v1.0.8
# 
DISCID=a507cb0b
DTITLE=Rionegro and Solimões - Rionegro and Solimões
DYEAR=1995
DGENRE=Sertanejo
TTITLE0=Como Esquecer um Amor
TTITLE1=Está Faltando Você
TTITLE2=Eu Saio Dessa
TTITLE3=Como é Possível
TTITLE4=Eu Quero Fazer Amor
TTITLE5=Meu Amor
TTITLE6=Quero Sua Volta
TTITLE7=Lá Vou Eu
TTITLE8=Não Me Deixe Louco
TTITLE9=O Rio do Meu Coração
TTITLE10=Falta Deus no Coração
EXTD=
EXTT0=
EXTT1=
EXTT2=
EXTT3=
EXTT4=
EXTT5=
EXTT6=
EXTT7=
EXTT8=
EXTT9=
EXTT10=
PLAYORDER=
